<svg width="34" height="34" viewBox="0 0 34 34" fill="none" xmlns="http://www.w3.org/2000/svg">
<path d="M16.9997 2.8335C9.17543 2.8335 2.83301 9.17591 2.83301 17.0002C2.83301 24.8244 9.17543 31.1668 16.9997 31.1668C24.8239 31.1668 31.1663 24.8244 31.1663 17.0002C31.1663 9.17591 24.8239 2.8335 16.9997 2.8335ZM26.8002 11.3335H22.2456C22.034 9.73945 21.767 8.15325 21.4452 6.57775C23.6946 7.54683 25.5722 9.21434 26.8002 11.3335ZM18.4362 5.76883C18.5325 6.2675 18.9844 8.656 19.3499 11.3335H14.6494C15.0149 8.656 15.4668 6.2675 15.5632 5.76883C16.0349 5.70791 16.5123 5.66683 16.9997 5.66683C17.487 5.66683 17.9644 5.70791 18.4362 5.76883ZM19.833 17.0002C19.833 17.8473 19.7721 18.822 19.6786 19.8335H14.3208C14.2273 18.822 14.1663 17.8473 14.1663 17.0002C14.1663 16.153 14.2273 15.1783 14.3208 14.1668H19.6786C19.7721 15.1783 19.833 16.153 19.833 17.0002ZM12.5542 6.57775C12.2324 8.15325 11.9654 9.73945 11.7538 11.3335H7.19917C8.42717 9.21434 10.3048 7.54683 12.5542 6.57775ZM6.03892 14.1668H11.452C11.3798 15.1132 11.333 16.0708 11.333 17.0002C11.333 17.9295 11.3798 18.8872 11.4534 19.8335H6.03892C5.80376 18.9254 5.66634 17.9805 5.66634 17.0002C5.66634 16.0198 5.80517 15.0749 6.03892 14.1668ZM7.19917 22.6668H11.7538C12.0201 24.6842 12.3488 26.421 12.5542 27.4226C10.3048 26.4535 8.42717 24.786 7.19917 22.6668ZM15.5632 28.2315C15.2107 26.3848 14.906 24.5293 14.6494 22.6668H19.3499C19.0927 24.5292 18.788 26.3847 18.4362 28.2315C17.9644 28.2924 17.487 28.3335 16.9997 28.3335C16.5123 28.3335 16.0349 28.2924 15.5632 28.2315ZM21.4452 27.4226C21.6506 26.421 21.9793 24.6842 22.2456 22.6668H26.8002C25.5722 24.786 23.6946 26.4535 21.4452 27.4226ZM27.9604 19.8335H22.5473C22.6196 18.8872 22.6663 17.9295 22.6663 17.0002C22.6663 16.0708 22.6196 15.1132 22.5459 14.1668H27.959C28.1942 15.0749 28.333 16.0198 28.333 17.0002C28.333 17.9805 28.1956 18.9254 27.9604 19.8335Z" fill="black"/>
</svg>
