<svg width="34" height="34" viewBox="0 0 34 34" fill="none" xmlns="http://www.w3.org/2000/svg">
<path d="M30.6687 28.1564C28.646 24.6595 25.5289 22.152 21.8911 20.9633C23.6905 19.8921 25.0885 18.2599 25.8705 16.3173C26.6524 14.3746 26.7751 12.229 26.2196 10.21C25.6641 8.19089 24.4612 6.40998 22.7956 5.14074C21.13 3.87149 19.0938 3.18408 16.9997 3.18408C14.9056 3.18408 12.8694 3.87149 11.2038 5.14074C9.53815 6.40998 8.33523 8.19089 7.77973 10.21C7.22424 12.229 7.34688 14.3746 8.12883 16.3173C8.91077 18.2599 10.3088 19.8921 12.1082 20.9633C8.47044 22.1507 5.35333 24.6582 3.3306 28.1564C3.25642 28.2774 3.20722 28.412 3.18589 28.5522C3.16457 28.6925 3.17156 28.8356 3.20645 28.9732C3.24133 29.1107 3.30341 29.2399 3.38902 29.353C3.47463 29.4661 3.58203 29.561 3.70489 29.632C3.82775 29.7029 3.96359 29.7486 4.10437 29.7662C4.24516 29.7838 4.38805 29.7731 4.52461 29.7346C4.66117 29.6961 4.78864 29.6306 4.89949 29.5421C5.01035 29.4535 5.10234 29.3436 5.17005 29.2189C7.67224 24.8946 12.0949 22.3127 16.9997 22.3127C21.9044 22.3127 26.3271 24.8946 28.8293 29.2189C28.897 29.3436 28.989 29.4535 29.0998 29.5421C29.2107 29.6306 29.3381 29.6961 29.4747 29.7346C29.6113 29.7731 29.7542 29.7838 29.8949 29.7662C30.0357 29.7486 30.1716 29.7029 30.2944 29.632C30.4173 29.561 30.5247 29.4661 30.6103 29.353C30.6959 29.2399 30.758 29.1107 30.7929 28.9732C30.8278 28.8356 30.8347 28.6925 30.8134 28.5522C30.7921 28.412 30.7429 28.2774 30.6687 28.1564ZM9.56216 12.7502C9.56216 11.2792 9.99836 9.84123 10.8156 8.61814C11.6328 7.39505 12.7944 6.44177 14.1534 5.87884C15.5125 5.31591 17.0079 5.16863 18.4506 5.4556C19.8934 5.74258 21.2186 6.45094 22.2588 7.49109C23.2989 8.53124 24.0073 9.85648 24.2942 11.2992C24.5812 12.7419 24.4339 14.2374 23.871 15.5964C23.3081 16.9554 22.3548 18.117 21.1317 18.9343C19.9086 19.7515 18.4707 20.1877 16.9997 20.1877C15.0278 20.1856 13.1372 19.4013 11.7429 18.007C10.3485 16.6126 9.56427 14.7221 9.56216 12.7502Z" fill="black"/>
</svg>
